<svg width="1920" height="766" viewBox="0 0 1920 766" fill="none" xmlns="http://www.w3.org/2000/svg">
<rect x="1521" y="502" width="101" height="38" fill="#7373A9" fill-opacity="0.15"/>
<rect x="12" y="502" width="101" height="38" fill="#7373A9" fill-opacity="0.15"/>
<rect x="1496" y="280" width="101" height="38" fill="#7373A9" fill-opacity="0.15"/>
<rect x="-13" y="280" width="101" height="38" fill="#7373A9" fill-opacity="0.15"/>
<rect x="1521" y="60" width="101" height="38" fill="#7373A9" fill-opacity="0.15"/>
<rect x="12" y="60" width="101" height="38" fill="#7373A9" fill-opacity="0.15"/>
<rect x="1521" y="649" width="61" height="38" fill="#7373A9" fill-opacity="0.15"/>
<rect x="12" y="649" width="61" height="38" fill="#7373A9" fill-opacity="0.15"/>
<rect x="1496" y="728" width="61" height="38" fill="#7373A9" fill-opacity="0.15"/>
<rect x="-13" y="728" width="61" height="38" fill="#7373A9" fill-opacity="0.15"/>
<rect x="1494" y="427" width="88" height="38" fill="#7373A9" fill-opacity="0.15"/>
<rect x="-15" y="427" width="88" height="38" fill="#7373A9" fill-opacity="0.15"/>
<rect x="1521" y="207" width="61" height="38" fill="#7373A9" fill-opacity="0.15"/>
<rect x="12" y="207" width="61" height="38" fill="#7373A9" fill-opacity="0.15"/>
<rect x="1593" y="649" width="61" height="38" fill="#7373A9" fill-opacity="0.15"/>
<rect x="84" y="649" width="61" height="38" fill="#7373A9" fill-opacity="0.15"/>
<rect x="1652" y="728" width="61" height="38" fill="#7373A9" fill-opacity="0.15"/>
<rect x="143" y="728" width="61" height="38" fill="#7373A9" fill-opacity="0.15"/>
<rect x="1593" y="427" width="61" height="38" fill="#7373A9" fill-opacity="0.15"/>
<rect x="84" y="427" width="61" height="38" fill="#7373A9" fill-opacity="0.15"/>
<rect x="1593" y="207" width="61" height="38" fill="#7373A9" fill-opacity="0.15"/>
<rect x="84" y="207" width="61" height="38" fill="#7373A9" fill-opacity="0.15"/>
<rect x="1757" y="502" width="45" height="38" fill="#7373A9" fill-opacity="0.15"/>
<rect x="248" y="502" width="45" height="38" fill="#7373A9" fill-opacity="0.15"/>
<rect x="1757" y="280" width="45" height="38" fill="#7373A9" fill-opacity="0.15"/>
<rect x="248" y="280" width="45" height="38" fill="#7373A9" fill-opacity="0.15"/>
<rect x="1757" y="60" width="87" height="38" fill="#7373A9" fill-opacity="0.15"/>
<rect x="248" y="60" width="87" height="38" fill="#7373A9" fill-opacity="0.15"/>
<rect x="1837" width="87" height="38" fill="#7373A9" fill-opacity="0.15"/>
<rect x="328" width="87" height="38" fill="#7373A9" fill-opacity="0.15"/>
<rect x="1597" width="117" height="38" fill="#7373A9" fill-opacity="0.15"/>
<rect x="88" width="117" height="38" fill="#7373A9" fill-opacity="0.15"/>
<rect x="1504" y="578" width="54" height="38" fill="#7373A9" fill-opacity="0.15"/>
<rect x="-5" y="578" width="54" height="38" fill="#7373A9" fill-opacity="0.15"/>
<rect x="1521" y="356" width="37" height="38" fill="#7373A9" fill-opacity="0.15"/>
<rect x="12" y="356" width="37" height="38" fill="#7373A9" fill-opacity="0.15"/>
<rect x="1521" y="136" width="37" height="38" fill="#7373A9" fill-opacity="0.15"/>
<rect x="12" y="136" width="37" height="38" fill="#7373A9" fill-opacity="0.15"/>
<rect x="1627" y="578" width="99" height="38" fill="#7373A9" fill-opacity="0.15"/>
<rect x="118" y="578" width="99" height="38" fill="#7373A9" fill-opacity="0.15"/>
<rect x="1627" y="356" width="99" height="38" fill="#7373A9" fill-opacity="0.15"/>
<rect x="118" y="356" width="99" height="38" fill="#7373A9" fill-opacity="0.15"/>
<rect x="1627" y="136" width="99" height="38" fill="#7373A9" fill-opacity="0.15"/>
<rect x="118" y="136" width="99" height="38" fill="#7373A9" fill-opacity="0.15"/>
<rect x="1741" y="649" width="99" height="38" fill="#7373A9" fill-opacity="0.15"/>
<rect x="232" y="649" width="99" height="38" fill="#7373A9" fill-opacity="0.15"/>
<rect x="1741" y="427" width="99" height="38" fill="#7373A9" fill-opacity="0.15"/>
<rect x="232" y="427" width="99" height="38" fill="#7373A9" fill-opacity="0.15"/>
<rect x="1741" y="207" width="99" height="38" fill="#7373A9" fill-opacity="0.15"/>
<rect x="232" y="207" width="99" height="38" fill="#7373A9" fill-opacity="0.15"/>
<rect x="1844" y="649" width="99" height="38" fill="#7373A9" fill-opacity="0.15"/>
<rect x="335" y="649" width="99" height="38" fill="#7373A9" fill-opacity="0.15"/>
<rect x="1796" y="728" width="99" height="38" fill="#7373A9" fill-opacity="0.15"/>
<rect x="287" y="728" width="99" height="38" fill="#7373A9" fill-opacity="0.15"/>
<rect x="1844" y="427" width="99" height="38" fill="#7373A9" fill-opacity="0.15"/>
<rect x="335" y="427" width="99" height="38" fill="#7373A9" fill-opacity="0.15"/>
<rect x="1844" y="207" width="99" height="38" fill="#7373A9" fill-opacity="0.15"/>
<rect x="335" y="207" width="99" height="38" fill="#7373A9" fill-opacity="0.15"/>
<rect x="1802" y="578" width="99" height="38" fill="#7373A9" fill-opacity="0.15"/>
<rect x="293" y="578" width="99" height="38" fill="#7373A9" fill-opacity="0.15"/>
<rect x="1802" y="356" width="99" height="38" fill="#7373A9" fill-opacity="0.15"/>
<rect x="293" y="356" width="99" height="38" fill="#7373A9" fill-opacity="0.15"/>
<rect x="1802" y="136" width="99" height="38" fill="#7373A9" fill-opacity="0.15"/>
<rect x="293" y="136" width="99" height="38" fill="#7373A9" fill-opacity="0.15"/>
<rect x="1699" y="502" width="39" height="38" fill="#7373A9" fill-opacity="0.15"/>
<rect x="190" y="502" width="39" height="38" fill="#7373A9" fill-opacity="0.15"/>
<rect x="1685" y="280" width="39" height="38" fill="#7373A9" fill-opacity="0.15"/>
<rect x="176" y="280" width="39" height="38" fill="#7373A9" fill-opacity="0.15"/>
<rect x="1687" y="60" width="39" height="38" fill="#7373A9" fill-opacity="0.15"/>
<rect x="178" y="60" width="39" height="38" fill="#7373A9" fill-opacity="0.15"/>
<rect x="1724" y="540" width="39" height="38" fill="#7373A9" fill-opacity="0.15"/>
<rect x="215" y="540" width="39" height="38" fill="#7373A9" fill-opacity="0.15"/>
<rect x="1724" y="318" width="39" height="38" fill="#7373A9" fill-opacity="0.15"/>
<rect x="215" y="318" width="39" height="38" fill="#7373A9" fill-opacity="0.15"/>
<rect x="1724" y="98" width="39" height="38" fill="#7373A9" fill-opacity="0.15"/>
<rect x="215" y="98" width="39" height="38" fill="#7373A9" fill-opacity="0.15"/>
<rect x="1479" y="98" width="39" height="38" fill="#7373A9" fill-opacity="0.15"/>
<rect x="-30" y="98" width="39" height="38" fill="#7373A9" fill-opacity="0.15"/>
</svg>
