<svg width="274" height="49" viewBox="0 0 274 49" fill="none" xmlns="http://www.w3.org/2000/svg">
<g clip-path="url(#clip0_181_747)">
<path d="M99.3984 34.4668H109.861V36.7615H102.224V40.3079H109.441V42.6026H102.224V48.7681H99.3984V34.4668Z" fill="white"/>
<path d="M129.97 41.606C129.97 42.7185 129.806 43.7152 129.479 44.6192C129.152 45.5232 128.685 46.3113 128.055 46.9603C127.447 47.6093 126.7 48.1192 125.836 48.4669C124.972 48.8146 123.991 49 122.94 49C121.866 49 120.908 48.8146 120.044 48.4669C119.18 48.1192 118.432 47.6093 117.825 46.9603C117.218 46.3113 116.728 45.5232 116.401 44.6192C116.074 43.7152 115.91 42.6954 115.91 41.606C115.91 40.4934 116.074 39.4967 116.401 38.5927C116.728 37.6887 117.195 36.9007 117.825 36.2516C118.432 35.6026 119.18 35.1159 120.044 34.745C120.908 34.3973 121.889 34.2119 122.94 34.2119C124.014 34.2119 124.972 34.3973 125.836 34.745C126.7 35.0927 127.447 35.6026 128.055 36.2516C128.662 36.9007 129.152 37.6656 129.479 38.5927C129.806 39.4967 129.97 40.4934 129.97 41.606ZM118.83 41.606C118.83 42.4404 118.946 43.1821 119.156 43.8311C119.367 44.4801 119.67 45.0132 120.044 45.4536C120.418 45.894 120.861 46.2185 121.352 46.4271C121.866 46.6589 122.379 46.7516 122.94 46.7516C123.501 46.7516 124.014 46.6358 124.528 46.4271C125.019 46.1954 125.462 45.8709 125.836 45.4536C126.21 45.0132 126.49 44.4801 126.723 43.8311C126.934 43.1821 127.05 42.4404 127.05 41.606C127.05 40.7715 126.934 40.0298 126.723 39.3808C126.513 38.755 126.21 38.1987 125.836 37.7814C125.462 37.3411 125.019 37.0165 124.528 36.8079C124.014 36.5762 123.501 36.4834 122.94 36.4834C122.379 36.4834 121.866 36.5993 121.352 36.8079C120.861 37.0397 120.418 37.3642 120.044 37.7814C119.67 38.2218 119.39 38.755 119.156 39.3808C118.923 40.0298 118.83 40.7483 118.83 41.606Z" fill="white"/>
<path d="M139.896 34.4668V42.7185C139.896 43.3443 139.943 43.9006 140.013 44.4105C140.083 44.9204 140.247 45.3377 140.48 45.6853C140.714 46.033 141.041 46.3112 141.438 46.4734C141.835 46.6589 142.372 46.7516 143.026 46.7516C143.68 46.7516 144.194 46.6589 144.614 46.4734C145.034 46.288 145.338 46.033 145.548 45.6853C145.758 45.3377 145.922 44.9204 145.992 44.4105C146.062 43.9238 146.109 43.3443 146.109 42.7185V34.4668H148.935V42.6953C148.935 43.8774 148.818 44.8741 148.608 45.6622C148.374 46.4734 148.024 47.0992 147.557 47.6092C147.09 48.0959 146.459 48.4668 145.712 48.6754C144.964 48.884 144.053 48.9999 143.026 48.9999C141.975 48.9999 141.064 48.884 140.317 48.6754C139.569 48.4668 138.962 48.0959 138.472 47.6092C137.981 47.1224 137.631 46.4734 137.397 45.6622C137.164 44.8509 137.07 43.8774 137.07 42.6953V34.4668H139.896Z" fill="white"/>
<path d="M165.049 48.7449L159.304 37.8741V48.7449H156.618V34.4668H160.308L166.054 45.3377V34.4668H168.739V48.7449H165.049Z" fill="white"/>
<path d="M180.907 34.4668C182.051 34.4668 183.102 34.5827 184.083 34.7913C185.064 34.9999 185.905 35.3708 186.629 35.9039C187.353 36.437 187.89 37.1787 188.31 38.0827C188.707 39.0098 188.918 40.1688 188.918 41.5827C188.918 42.9966 188.707 44.1555 188.31 45.0827C187.913 46.0098 187.353 46.7284 186.629 47.2847C185.905 47.841 185.064 48.2118 184.083 48.4204C183.102 48.629 182.051 48.7449 180.907 48.7449H176.633V34.4668H180.907ZM185.951 41.6059C185.951 40.5396 185.811 39.682 185.508 39.033C185.227 38.384 184.83 37.8741 184.34 37.5496C183.849 37.2019 183.289 36.9701 182.682 36.8542C182.051 36.7383 181.421 36.692 180.767 36.692H179.459V46.543H180.767C181.421 46.543 182.051 46.4966 182.682 46.3807C183.312 46.2648 183.849 46.033 184.34 45.6853C184.83 45.3377 185.227 44.8277 185.508 44.2019C185.811 43.5297 185.951 42.6721 185.951 41.6059Z" fill="white"/>
<path d="M200.268 34.4668H203.118L208.489 48.7449H205.406L204.402 45.8476H198.82L197.816 48.7449H194.92L200.268 34.4668ZM199.638 43.5761H203.608L201.623 37.9204L199.638 43.5761Z" fill="white"/>
<path d="M216.36 36.7615H211.946V34.4668H223.647V36.7615H219.21V48.7449H216.384V36.7615H216.36Z" fill="white"/>
<path d="M233.176 48.7449H230.35V34.4668H233.176V48.7449Z" fill="white"/>
<path d="M254.568 41.606C254.568 42.7185 254.405 43.7152 254.078 44.6192C253.751 45.5232 253.284 46.3113 252.653 46.9603C252.046 47.6093 251.299 48.1192 250.435 48.4669C249.571 48.8146 248.59 49 247.539 49C246.464 49 245.507 48.8146 244.643 48.4669C243.778 48.1192 243.031 47.6093 242.424 46.9603C241.817 46.3113 241.326 45.5232 240.999 44.6192C240.672 43.7152 240.509 42.6954 240.509 41.606C240.509 40.4934 240.672 39.4967 240.999 38.5927C241.326 37.6887 241.793 36.9007 242.424 36.2516C243.031 35.6026 243.778 35.1159 244.643 34.745C245.507 34.3973 246.488 34.2119 247.539 34.2119C248.613 34.2119 249.571 34.3973 250.435 34.745C251.299 35.0927 252.046 35.6026 252.653 36.2516C253.261 36.9007 253.751 37.6656 254.078 38.5927C254.405 39.4967 254.568 40.4934 254.568 41.606ZM243.428 41.606C243.428 42.4404 243.545 43.1821 243.755 43.8311C243.965 44.4801 244.269 45.0132 244.643 45.4536C245.016 45.894 245.46 46.2185 245.95 46.4271C246.464 46.6589 246.978 46.7516 247.539 46.7516C248.099 46.7516 248.613 46.6358 249.127 46.4271C249.617 46.1954 250.061 45.8709 250.435 45.4536C250.808 45.0132 251.089 44.4801 251.322 43.8311C251.532 43.1821 251.649 42.4404 251.649 41.606C251.649 40.7715 251.532 40.0298 251.322 39.3808C251.112 38.755 250.808 38.1987 250.435 37.7814C250.061 37.3411 249.617 37.0165 249.127 36.8079C248.613 36.5762 248.099 36.4834 247.539 36.4834C246.978 36.4834 246.464 36.5993 245.95 36.8079C245.46 37.0397 245.016 37.3642 244.643 37.7814C244.269 38.2218 243.989 38.755 243.755 39.3808C243.522 40.0298 243.428 40.7483 243.428 41.606Z" fill="white"/>
<path d="M270.31 48.7449L264.565 37.8741V48.7449H261.879V34.4668H265.569L271.314 45.3377V34.4668H274V48.7449H270.31Z" fill="white"/>
<path d="M122.029 9.82782H107.689V5.70199H125.019V0H99.3984V21.2318H107.689V15.5298H122.029V9.82782Z" fill="white"/>
<path d="M167.571 14.1391L159.958 0H150.429L162.783 21.2318H172.242L184.597 0H175.185L167.571 14.1391Z" fill="white"/>
<path d="M211.221 10.4536C213.393 9.4106 214.398 7.7649 214.398 5.88742C214.398 2.4106 211.432 0 205.593 0H186.839V21.2318H206.037C212.296 21.2318 215.075 18.7748 215.075 15.2285C215.075 13.2351 213.861 11.4272 211.221 10.4536ZM194.92 5.09934H204.192C205.266 5.09934 206.013 5.77152 206.013 6.69868C206.013 7.64901 205.243 8.29801 204.192 8.29801H194.92V5.09934ZM204.869 16.1325H194.92V12.9106H204.869C205.943 12.9106 206.691 13.5828 206.691 14.5099C206.714 15.4603 205.943 16.1325 204.869 16.1325Z" fill="white"/>
<path d="M228.645 12.9106H241.63V8.29801H228.645V5.70199H243.148V0H219.022V21.2318H243.522V15.5298H228.645V12.9106Z" fill="white"/>
<path d="M246.955 0V5.70199H256.274V21.2318H264.681V5.70199H274V0H246.955Z" fill="white"/>
<path d="M134.688 0L122.356 21.2318H131.185L132.843 18.1026H146.038L147.697 21.2318H156.898L144.567 0H134.688ZM135.809 12.5861L139.452 5.74834L143.096 12.5861H135.809Z" fill="white"/>
<path d="M34.3785 39.8907L31.5292 34.9304H26.3677L21.65 26.6788H15.3909L20.1086 34.9304H13.8028L6.28247 21.7185H0L10.3929 39.8907H10.4397H16.6287H34.3785Z" fill="white"/>
<path d="M72.517 21.7185L64.9967 34.9304H58.6908L63.4085 26.6788H57.1494L52.4317 34.9304H47.2703L44.4443 39.8907H62.1707H68.3598H68.4065L78.7994 21.7185H72.517Z" fill="white"/>
<path d="M15.4372 48.7217H63.3382L66.2809 43.6919H12.5879L15.4372 48.7217Z" fill="white"/>
<path d="M39.3995 27.6059L22.584 12.6788L28.9832 1.52977L39.3995 10.4304L49.8392 1.50659L56.2384 12.7251L39.3995 27.6059Z" fill="white"/>
</g>
<defs>
<clipPath id="clip0_181_747">
<rect width="274" height="49" fill="white"/>
</clipPath>
</defs>
</svg>
